<?xml version="1.0" standalone="no"?>
<!DOCTYPE svg PUBLIC "-//W3C//DTD SVG 20010904//EN"
 "http://www.w3.org/TR/2001/REC-SVG-20010904/DTD/svg10.dtd">
<svg version="1.0" xmlns="http://www.w3.org/2000/svg"
 width="597.000000pt" height="368.000000pt" viewBox="0 0 597.000000 368.000000"
 preserveAspectRatio="xMidYMid meet">

<g transform="translate(0.000000,368.000000) scale(0.100000,-0.100000)"
fill="#000000" stroke="none">
<path d="M3793 3639 c-312 -29 -591 -165 -814 -396 -192 -199 -312 -444 -356
-728 -18 -120 -13 -331 11 -445 40 -185 119 -367 224 -513 60 -84 203 -237
221 -237 17 0 25 48 11 65 -7 9 -10 18 -7 22 4 3 12 -6 18 -21 10 -20 10 -32
0 -53 -14 -31 -14 -31 99 -107 193 -130 415 -203 673 -221 95 -7 97 -6 97 15
0 12 -14 45 -32 74 -26 43 -43 58 -92 80 -49 23 -63 26 -78 17 -16 -10 -22 -8
-38 11 -12 15 -17 30 -13 43 12 36 9 126 -4 143 -7 9 -13 44 -13 77 0 34 -6
69 -14 80 -7 11 -16 42 -19 68 -4 30 -16 60 -32 79 -14 16 -25 34 -25 39 0 4
-11 16 -25 25 -24 16 -27 15 -44 0 -13 -12 -27 -15 -45 -10 -21 5 -26 12 -26
37 l0 30 -25 -23 c-13 -13 -27 -32 -31 -42 -3 -11 -22 -23 -51 -31 -24 -6 -49
-19 -54 -29 -5 -10 -19 -23 -32 -29 -19 -9 -18 -7 6 15 15 15 27 31 27 35 0 5
17 11 38 15 28 4 45 16 72 50 38 50 53 53 58 14 8 -66 77 -26 122 69 17 35 30
74 30 88 0 14 15 41 35 63 30 34 35 48 41 109 8 82 -11 151 -81 294 -23 48
-44 95 -47 106 -4 15 -33 30 -113 58 l-108 39 -56 -30 c-47 -24 -60 -38 -81
-80 -18 -38 -35 -56 -60 -68 -29 -13 -32 -14 -16 -1 11 8 24 15 28 15 5 0 19
24 33 54 21 45 34 60 80 86 30 17 55 32 55 33 0 2 -14 38 -31 82 -27 72 -38
110 -56 197 -3 18 -14 30 -33 36 -25 9 -32 6 -61 -24 -32 -33 -59 -41 -93 -28
-11 4 -14 14 -10 28 4 18 -2 26 -29 41 -32 17 -36 17 -58 2 -28 -20 -74 -23
-62 -4 4 6 6 22 5 34 -2 12 4 25 14 31 13 7 15 17 11 41 -6 26 -2 37 18 55 14
13 39 40 55 61 17 21 30 33 30 27 0 -13 -48 -70 -84 -99 -10 -9 -13 -23 -9
-48 4 -26 2 -36 -11 -41 -11 -4 -15 -16 -14 -35 3 -33 14 -36 45 -14 40 28
117 -12 106 -55 -9 -34 38 -25 77 15 27 28 40 34 60 30 15 -3 41 3 65 15 21
11 47 20 56 20 26 0 50 84 39 139 -4 25 -6 51 -3 58 3 7 -2 14 -11 14 -9 1
-20 3 -26 4 -5 1 -16 3 -23 4 -8 0 -27 12 -43 26 -42 36 -79 39 -156 12 -37
-13 -65 -21 -63 -16 3 4 35 17 72 29 77 25 111 21 155 -15 16 -14 41 -25 54
-25 47 0 63 -16 57 -58 -3 -22 0 -49 6 -61 10 -17 9 -26 -4 -43 -8 -13 -15
-32 -15 -43 0 -20 4 -21 58 -14 32 3 87 17 122 29 54 19 75 21 149 16 47 -4
126 -9 174 -12 l88 -7 55 -50 c57 -52 86 -98 99 -154 4 -22 24 -48 58 -78 43
-38 58 -45 93 -45 33 0 43 4 47 20 7 27 54 27 82 0 21 -19 27 -20 90 -10 57 9
71 8 91 -5 36 -23 135 -20 168 6 14 11 26 25 26 31 0 5 8 22 18 36 19 30 21
77 4 94 -7 7 -22 13 -34 15 -12 2 -36 15 -54 28 -39 30 -44 31 -44 8 0 -16 -1
-16 -17 0 -15 14 -16 21 -5 37 11 18 10 20 -10 21 -13 1 -27 1 -31 0 -5 -1 -6
3 -2 9 3 5 2 10 -3 10 -5 0 -12 9 -15 20 -3 11 -14 20 -24 20 -10 0 -24 5 -31
12 -9 9 -12 8 -12 -5 0 -9 -4 -17 -10 -17 -5 0 -10 6 -10 14 0 8 -3 16 -7 18
-5 2 -15 16 -23 32 -17 33 -40 46 -40 22 0 -20 -19 -21 -26 -2 -3 9 -12 12
-21 9 -11 -4 -14 -2 -9 5 4 7 -3 17 -18 24 -14 6 -26 16 -26 21 0 5 -9 7 -20
4 -13 -3 -21 1 -26 15 -3 11 -8 17 -12 14 -3 -3 -15 0 -27 8 -12 8 -36 14 -52
14 -16 -1 -39 4 -51 11 -13 7 -31 10 -41 6 -11 -3 -25 3 -36 15 -10 11 -29 20
-43 20 -22 0 -23 2 -11 16 12 15 11 16 -8 10 -32 -10 -37 9 -7 29 18 11 24 23
21 36 -3 10 -1 19 4 19 5 0 9 -6 10 -12 0 -7 4 -3 9 10 5 12 13 22 19 22 5 0
11 9 14 20 4 16 0 20 -18 20 -12 0 -28 7 -35 15 -11 13 -15 13 -29 2 -20 -16
-53 -16 -58 1 -3 7 1 10 10 6 8 -3 18 0 22 5 3 6 10 9 15 6 4 -3 6 3 3 14 -3
14 3 20 24 26 15 5 31 8 36 7 4 -1 7 5 7 13 0 10 7 15 18 13 11 -2 17 3 17 17
0 26 -73 62 -140 69 -27 2 -92 0 -142 -5z m-713 -1244 c-14 -8 -29 -14 -35
-14 -5 0 1 6 15 14 14 8 30 14 35 14 6 0 -1 -6 -15 -14z m-40 -32 c-1 -5 -17
-26 -37 -48 -38 -43 -34 -28 7 23 27 33 30 36 30 25z m-26 -183 c20 -30 36
-61 36 -69 0 -8 -12 8 -26 34 -14 27 -34 60 -45 73 -10 14 -19 32 -18 41 0 12
2 11 8 -4 5 -11 25 -45 45 -75z m33 -162 c-3 -8 -6 -5 -6 6 -1 11 2 17 5 13 3
-3 4 -12 1 -19z m-15 -41 c-7 -8 -7 -18 -2 -27 6 -8 10 -19 9 -25 0 -5 -6 1
-13 15 -10 17 -11 30 -4 43 5 10 12 16 15 13 3 -3 1 -11 -5 -19z m-28 -166
l-39 -36 33 35 c17 20 33 47 33 60 l2 25 4 -24 c4 -18 -5 -33 -33 -60z m-14
-86 c21 -36 21 -38 3 -20 -12 11 -24 31 -28 45 -9 30 -5 27 25 -25z m80 -87
c0 -12 67 -78 80 -78 6 0 22 7 36 16 13 9 26 15 28 13 2 -2 -12 -14 -30 -26
l-35 -22 -39 37 c-21 20 -51 55 -66 77 l-26 40 26 -24 c14 -14 26 -28 26 -33z
m194 -35 c-10 -7 -23 -13 -28 -13 -6 0 -3 5 6 11 11 6 15 16 11 27 -6 15 -5
15 11 3 17 -14 17 -15 0 -28z m-114 -93 c0 -11 -16 -37 -36 -58 l-37 -37 32
38 c17 21 31 47 31 57 0 11 2 20 5 20 3 0 5 -9 5 -20z"/>
<path d="M2910 3236 c-30 -18 -212 -127 -405 -241 -707 -420 -772 -459 -865
-525 -133 -95 -452 -284 -715 -425 -375 -201 -634 -347 -715 -405 -52 -37
-121 -81 -152 -96 l-58 -28 0 -758 0 -758 50 0 c43 0 55 5 77 27 42 46 68 94
91 173 59 203 84 378 80 567 l-3 142 28 28 27 28 504 0 c497 0 505 0 533 -21
42 -31 42 -70 -1 -126 -19 -25 -122 -122 -228 -216 -106 -93 -292 -267 -413
-386 l-220 -215 385 4 c212 2 399 4 415 3 17 0 645 -2 1396 -4 l1366 -4 25 32
c46 60 201 331 288 503 94 184 154 287 236 405 28 41 100 158 159 260 60 102
131 214 158 250 67 85 79 106 31 50 -241 -280 -512 -440 -838 -496 -146 -24
-394 -15 -531 20 -246 63 -436 169 -617 344 -196 190 -327 428 -383 697 -26
124 -31 329 -11 460 39 253 157 509 317 688 28 31 49 57 47 57 -2 0 -28 -16
-58 -34z m-2460 -1966 c0 -27 -87 -119 -111 -117 -38 3 -5 87 50 124 35 24 61
21 61 -7z"/>
<path d="M3484 2939 c-4 -7 -22 -9 -44 -6 -21 3 -43 0 -49 -6 -7 -7 -19 -7
-38 2 -19 9 -29 9 -31 2 -2 -6 -9 -8 -14 -4 -17 10 -2 -93 17 -119 8 -13 15
-32 15 -43 0 -12 6 -30 14 -40 7 -10 11 -26 9 -35 -7 -28 135 -81 166 -61 11
7 9 13 -8 30 -11 11 -28 21 -36 21 -10 0 -15 10 -15 34 0 18 -7 39 -15 46 -26
21 -19 85 11 114 15 13 33 22 40 19 8 -3 14 0 14 6 0 17 29 1 36 -21 3 -11 8
-17 11 -15 6 7 -26 70 -41 79 -16 11 -34 10 -42 -3z"/>
<path d="M3618 2870 c5 -36 24 -53 54 -48 48 7 24 52 -38 72 -18 6 -20 3 -16
-24z"/>
<path d="M4827 2822 c-3 -4 15 -50 39 -102 24 -52 44 -102 44 -111 0 -9 7 -22
15 -29 8 -7 15 -18 15 -26 0 -7 14 -36 30 -64 17 -28 30 -55 30 -60 0 -5 13
-22 29 -37 16 -15 42 -46 57 -68 15 -22 25 -33 22 -24 -3 8 5 33 18 55 13 21
24 47 24 57 0 9 5 17 11 17 8 0 7 5 -1 15 -11 13 -15 13 -21 3 -5 -8 -11 3
-15 30 -6 40 -42 92 -63 92 -6 0 -8 7 -5 15 4 8 1 15 -6 15 -7 0 -10 6 -7 14
7 18 -24 31 -33 15 -11 -17 -23 7 -15 32 5 16 -4 31 -46 71 -35 33 -58 48 -71
45 -14 -4 -18 0 -18 18 0 22 -25 42 -33 27z"/>
<path d="M4789 2736 c-12 -20 -34 -43 -50 -51 -37 -20 -147 -20 -169 0 -13 11
-30 13 -90 6 -68 -8 -76 -7 -89 10 -18 25 -57 25 -64 -1 -4 -16 -14 -20 -46
-20 -23 0 -41 -3 -41 -7 0 -35 28 -95 60 -128 21 -22 43 -50 50 -63 17 -34 1
-119 -40 -217 -10 -25 -15 -56 -12 -82 l4 -42 52 -3 c51 -3 51 -3 91 -65 l40
-63 56 2 c72 3 112 -15 132 -57 9 -20 26 -37 39 -40 67 -17 146 -31 157 -27
15 5 61 106 91 197 12 39 29 85 36 103 10 24 11 38 4 52 -9 18 -14 86 -10 161
0 15 -10 43 -24 64 -14 20 -28 46 -32 58 -4 12 -15 33 -25 46 -11 13 -19 32
-19 42 0 15 -62 144 -75 158 -3 2 -14 -13 -26 -33z"/>
<path d="M3625 2743 c4 -10 8 -28 10 -40 1 -13 8 -29 15 -38 10 -12 10 -15 -4
-15 -9 0 -27 -9 -38 -20 -21 -20 -21 -20 -2 -35 10 -8 23 -15 27 -15 5 0 7 -6
5 -12 -8 -22 16 -36 53 -31 42 6 62 -13 36 -32 -23 -17 -21 -22 9 -29 27 -7
47 -43 69 -128 11 -42 11 -49 -4 -62 -10 -9 -23 -16 -29 -16 -13 0 -15 -14 -6
-47 8 -29 52 -37 56 -10 5 36 23 28 24 -10 1 -21 5 -51 9 -68 5 -24 4 -27 -5
-15 -9 11 -13 12 -17 3 -2 -7 -20 -13 -39 -13 -31 0 -34 -3 -36 -32 -3 -55 2
-91 17 -120 7 -16 17 -54 21 -86 5 -47 15 -69 57 -127 71 -98 107 -135 133
-135 14 0 31 -12 43 -29 12 -16 34 -32 50 -36 16 -3 34 -12 39 -18 16 -19 42
-117 42 -156 0 -20 4 -41 8 -47 11 -15 55 -44 68 -44 22 0 24 44 4 83 -11 21
-20 43 -20 49 0 6 -6 19 -14 27 -7 9 -21 47 -30 84 -10 37 -33 104 -52 148
-19 45 -34 88 -34 98 0 9 -4 21 -9 26 -5 6 -10 39 -12 75 -2 65 12 120 31 120
5 0 10 6 10 14 0 7 9 20 19 27 30 22 18 75 -21 88 -25 9 -28 14 -22 33 3 13
13 27 21 31 17 10 7 28 -12 20 -8 -3 -15 -14 -15 -24 0 -10 -7 -19 -15 -19 -9
0 -15 9 -15 25 0 14 -4 25 -10 25 -5 0 -10 11 -10 25 0 26 -19 75 -29 75 -30
-1 -35 -60 -5 -60 8 0 14 -10 14 -23 0 -13 3 -27 6 -30 4 -3 8 -22 9 -40 1
-24 12 -44 34 -66 32 -31 32 -39 4 -73 -10 -11 -11 -18 -4 -23 17 -10 13 -25
-7 -25 -14 0 -19 8 -20 30 -1 36 -38 100 -58 100 -18 0 -18 14 1 30 12 10 15
9 15 -4 0 -10 4 -14 10 -11 8 5 7 29 -6 93 -3 13 -8 21 -13 18 -4 -3 -14 6
-21 19 -7 14 -17 25 -22 25 -4 0 -8 16 -8 35 0 22 -8 43 -20 55 -11 11 -19 24
-18 29 2 5 -15 23 -36 40 -29 24 -42 29 -50 20 -8 -8 -7 -13 2 -16 6 -3 12
-14 12 -26 0 -31 -15 -11 -39 53 -24 64 -27 87 -5 48 8 -16 19 -28 25 -28 6 0
2 16 -10 36 -12 19 -21 42 -21 50 0 8 -4 14 -10 14 -5 0 -13 12 -16 28 -7 26
-25 53 -82 119 -30 36 -48 43 -37 16z m312 -525 c17 -14 4 -38 -21 -38 -27 1
-56 23 -56 43 0 13 7 15 33 10 17 -3 37 -10 44 -15z m28 -58 c3 -5 2 -10 -4
-10 -5 0 -13 5 -16 10 -3 6 -2 10 4 10 5 0 13 -4 16 -10z m-65 -10 c0 -5 -5
-10 -11 -10 -5 0 -7 5 -4 10 3 6 8 10 11 10 2 0 4 -4 4 -10z m34 -110 c3 -23
2 -48 -2 -57 -7 -11 -11 -5 -16 26 -3 22 -11 41 -16 41 -6 0 -10 11 -10 25 0
43 36 14 44 -35z m93 -362 c-3 -8 -6 -5 -6 6 -1 11 2 17 5 13 3 -3 4 -12 1
-19z"/>
<path d="M4196 2509 c-18 -36 -21 -69 -6 -69 6 0 10 5 10 12 0 7 15 -2 33 -20
30 -29 57 -41 57 -26 0 3 -15 26 -32 52 -18 26 -33 53 -34 60 -4 26 -12 23
-28 -9z"/>
<path d="M5220 2418 c0 -17 -6 -39 -13 -47 -7 -9 -19 -35 -27 -59 -16 -50 -3
-93 27 -87 10 2 21 4 26 4 11 1 9 221 -3 221 -5 0 -10 -14 -10 -32z"/>
<path d="M5007 2358 c-9 -31 3 -100 20 -116 11 -11 10 -20 -6 -50 -11 -20 -32
-75 -47 -122 -33 -102 -70 -179 -90 -187 -8 -3 -14 -11 -14 -19 0 -7 -14 -29
-32 -49 l-31 -36 29 3 c26 3 29 0 29 -24 -1 -20 4 -28 17 -28 9 0 21 -7 26
-16 12 -22 46 -4 67 36 18 35 87 94 151 129 44 24 49 30 66 91 23 83 24 112 2
103 -13 -5 -15 -2 -10 15 15 45 14 59 -6 71 -11 7 -17 8 -14 2 7 -10 -13 -61
-24 -61 -15 0 -17 13 -8 48 12 42 -5 112 -27 112 -7 0 -23 20 -34 44 -12 24
-30 51 -40 60 -17 16 -19 15 -24 -6z m73 -108 c0 -5 -4 -10 -10 -10 -5 0 -10
5 -10 10 0 6 5 10 10 10 6 0 10 -4 10 -10z"/>
<path d="M4092 2314 c4 -50 17 -73 41 -74 14 0 7 40 -14 85 -12 25 -24 45 -26
45 -3 0 -3 -25 -1 -56z"/>
<path d="M4246 2121 c-4 -6 -4 -11 0 -11 4 0 -1 -6 -11 -14 -15 -10 -18 -24
-16 -64 1 -28 -3 -53 -9 -57 -5 -3 -10 -19 -10 -35 0 -16 -7 -30 -15 -34 -33
-12 -35 -50 -9 -153 14 -54 34 -138 44 -188 10 -49 32 -126 49 -170 l29 -80
54 2 c74 3 94 10 121 39 23 25 25 25 89 14 64 -11 65 -11 163 30 167 69 180
108 23 65 -31 -8 -35 2 -16 38 18 35 130 156 150 163 10 3 18 14 18 25 0 14
-7 19 -30 19 -30 0 -42 21 -20 35 20 12 -1 24 -30 18 -38 -7 -38 7 0 50 36 41
38 55 8 62 -13 3 -45 10 -72 15 -65 14 -81 24 -96 59 -15 36 -52 51 -131 51
l-59 0 -31 55 c-17 30 -34 57 -38 59 -18 12 -149 18 -155 7z"/>
<path d="M3661 1984 c-12 -15 -21 -35 -21 -45 0 -24 -29 -97 -51 -129 -17 -25
-16 -26 4 -45 47 -43 107 -162 90 -179 -3 -2 2 -15 11 -28 11 -15 16 -44 16
-89 0 -46 4 -70 15 -79 10 -9 13 -29 11 -75 -2 -34 -7 -68 -11 -75 -4 -6 1
-20 10 -30 14 -15 21 -17 35 -7 15 9 29 6 72 -16 29 -15 59 -27 66 -27 6 0 12
-6 12 -13 0 -8 14 -33 30 -55 17 -23 30 -51 30 -62 0 -17 7 -20 46 -20 25 0
77 5 116 12 65 10 71 14 84 43 8 21 11 52 7 91 -6 52 -11 63 -45 96 -22 21
-43 38 -47 38 -5 0 -11 31 -14 69 -9 111 -22 131 -108 168 -41 17 -85 34 -99
37 -19 4 -42 33 -94 122 -57 94 -74 135 -95 217 -14 55 -31 102 -37 104 -7 2
-21 -8 -33 -23z"/>
<path d="M5112 1853 c-29 -14 -68 -49 -149 -135 -12 -13 -36 -34 -54 -48 -72
-58 -178 -174 -167 -185 3 -3 29 -1 58 5 59 11 76 4 66 -28 -6 -18 -64 -47
-224 -113 l-23 -9 21 -27 c38 -49 57 -57 88 -38 54 35 229 223 284 305 78 119
161 290 140 290 -4 0 -22 -8 -40 -17z"/>
<path d="M4477 1340 c-21 -22 -38 -30 -63 -30 -44 0 -124 -20 -124 -30 0 -5
-12 -23 -26 -40 -24 -28 -26 -36 -20 -89 4 -33 2 -70 -3 -85 -10 -25 -9 -26
17 -20 114 28 330 125 398 179 l28 22 -32 34 c-17 19 -38 43 -45 53 -8 10 -27
20 -43 21 -16 2 -36 5 -44 9 -9 4 -26 -5 -43 -24z"/>
</g>
</svg>
