<svg width="44" height="27" viewBox="0 0 44 27" fill="none" xmlns="http://www.w3.org/2000/svg">
<path d="M0.869564 0.935335C1.44928 0.311778 2.13565 0 2.9287 0C3.7202 0 4.4058 0.311778 4.98551 0.935335L21.971 19.2055L39.0145 0.872979C39.5556 0.290993 40.2319 0 41.0435 0C41.8551 0 42.5507 0.311778 43.1304 0.935335C43.7101 1.55889 44 2.29718 44 3.15021C44 4.00157 43.7101 4.73903 43.1304 5.36259L23.5942 26.3141C23.3623 26.5635 23.1111 26.7406 22.8406 26.8454C22.57 26.9485 22.2802 27 21.971 27C21.6618 27 21.372 26.9485 21.1014 26.8454C20.8309 26.7406 20.5797 26.5635 20.3478 26.3141L0.811596 5.30023C0.270535 4.71824 0 4.00157 0 3.15021C0 2.29718 0.289856 1.55889 0.869564 0.935335Z" fill="white"/>
</svg>
