<svg width="14" height="23" viewBox="0 0 14 23" fill="none" xmlns="http://www.w3.org/2000/svg">
<path d="M13.515 22.5455C13.8383 22.2424 14 21.8836 14 21.4691C14 21.0554 13.8383 20.697 13.515 20.3939L4.04157 11.5152L13.5473 2.60606C13.8491 2.32323 14 1.9697 14 1.54545C14 1.12121 13.8383 0.757576 13.515 0.454545C13.1917 0.151515 12.8089 0 12.3666 0C11.9251 0 11.5427 0.151515 11.2194 0.454545L0.355658 10.6667C0.226328 10.7879 0.134504 10.9192 0.0801859 11.0606C0.0267286 11.202 0 11.3535 0 11.5152C0 11.6768 0.0267286 11.8283 0.0801859 11.9697C0.134504 12.1111 0.226328 12.2424 0.355658 12.3636L11.2517 22.5758C11.5535 22.8586 11.9251 23 12.3666 23C12.8089 23 13.1917 22.8485 13.515 22.5455Z" fill="white"/>
</svg>
