<svg width="41" height="41" viewBox="0 0 41 41" fill="none" xmlns="http://www.w3.org/2000/svg">
<path fill-rule="evenodd" clip-rule="evenodd" d="M9 0C4.02944 0 0 4.02944 0 9V31.3796C0 36.3502 4.02944 40.3796 9 40.3796H31.3796C36.3502 40.3796 40.3796 36.3502 40.3796 31.3796V9C40.3796 4.02944 36.3502 0 31.3796 0H9ZM24.7146 8.24075C27.0075 8.63499 29.2373 9.33131 31.345 10.3113C34.9827 15.7094 36.79 21.7974 36.1227 28.8195C33.3395 30.8874 30.6398 32.1421 27.9856 32.963C27.3284 32.0675 26.7469 31.1131 26.244 30.1126C27.198 29.7521 28.1175 29.3073 28.9916 28.7836C28.7629 28.6132 28.5388 28.437 28.3193 28.255C23.0942 30.7129 17.3484 30.7129 12.0603 28.255C11.8418 28.4382 11.6175 28.6145 11.3879 28.7836C12.2606 29.3059 13.1784 29.7498 14.1305 30.11C13.6304 31.1065 13.0479 32.0599 12.3888 32.9605C9.73713 32.1395 7.03998 30.8848 4.25683 28.8195C3.68812 22.762 4.82566 16.6176 9.02179 10.3164C11.1305 9.33326 13.3622 8.63518 15.6573 8.24075C15.9456 8.75386 16.2868 9.44412 16.5168 9.99303C18.9435 9.62364 21.393 9.62364 23.8652 9.99303C24.0953 9.44399 24.429 8.75386 24.7146 8.24075ZM11.9616 21.8282C11.9616 23.6216 13.2635 25.0943 14.851 25.0943C16.4663 25.0943 17.7429 23.6216 17.7403 21.8282C17.7681 20.0323 16.4663 18.5597 14.851 18.5597C13.2358 18.5597 11.9616 20.0349 11.9616 21.8282ZM22.6393 21.8282C22.6393 23.6216 23.941 25.0943 25.5285 25.0943C27.1438 25.0943 28.4179 23.6216 28.4179 21.8282C28.4456 20.0323 27.1438 18.5597 25.5285 18.5597C23.9133 18.5597 22.6393 20.0349 22.6393 21.8282Z" fill="white" fill-opacity="1"/>
</svg>
