<svg width="21" height="21" viewBox="0 0 21 21" fill="none" xmlns="http://www.w3.org/2000/svg">
<path d="M1.18423 20.7055C0.273498 20.2313 0.137568 19.6231 0.776439 18.8809L8.23899 10.5309L0.368649 2.11909C-0.243035 1.43872 -0.0935124 0.830512 0.817218 0.294463C1.75513 -0.190043 2.54353 -0.0766484 3.1824 0.634647L10.4818 8.39704L17.8221 0.634647C18.5289 -0.0560302 19.3173 -0.148808 20.1872 0.356314C21.1116 0.871746 21.2475 1.46965 20.595 2.15001L12.5616 10.6237L20.2688 18.85C20.9077 19.5613 20.7581 20.1798 19.8202 20.7055C18.8823 21.19 18.0939 21.0766 17.455 20.3654L10.3595 12.7885L3.59019 20.3963C2.96491 21.0663 2.16292 21.1694 1.18423 20.7055Z" fill="white"/>
</svg>
