<svg width="49" height="49" viewBox="0 0 49 49" fill="none" xmlns="http://www.w3.org/2000/svg">
<path d="M40.8333 15.3763C39.6424 15.908 38.3557 16.2695 36.9733 16.4609C38.4195 15.6102 39.4084 14.3661 39.9401 12.7285C38.5577 13.5367 37.1328 14.079 35.6654 14.3555C34.3681 12.9518 32.7411 12.25 30.7845 12.25C28.9342 12.25 27.3551 12.904 26.0472 14.2119C24.7393 15.5199 24.0853 17.099 24.0853 18.9492C24.0853 19.566 24.1385 20.0764 24.2448 20.4805C21.5013 20.3316 18.928 19.6404 16.5247 18.4069C14.1215 17.1734 12.0799 15.5252 10.3997 13.4622C9.78299 14.5256 9.47461 15.6528 9.47461 16.8438C9.47461 19.2682 10.4423 21.1291 12.3776 22.4264C11.378 22.4052 10.3147 22.1287 9.1875 21.597V21.6608C9.1875 23.2559 9.71918 24.6755 10.7826 25.9196C11.8459 27.1637 13.1539 27.9347 14.7064 28.2324C14.0896 28.4026 13.5473 28.4876 13.0794 28.4876C12.803 28.4876 12.3882 28.4451 11.8353 28.36C12.2819 29.6999 13.0741 30.8058 14.2119 31.6777C15.3497 32.5497 16.6417 32.9963 18.0879 33.0176C15.6209 34.9316 12.8455 35.8887 9.76172 35.8887C9.20877 35.8887 8.67708 35.8568 8.16667 35.793C11.3142 37.7921 14.7383 38.7917 18.4388 38.7917C20.8207 38.7917 23.0538 38.4142 25.138 37.6592C27.2222 36.9042 29.0087 35.894 30.4974 34.6286C31.9861 33.3632 33.2675 31.9064 34.3415 30.2581C35.4155 28.6099 36.213 26.8873 36.7341 25.0902C37.2551 23.2931 37.5156 21.5013 37.5156 19.7148C37.5156 19.332 37.505 19.0449 37.4837 18.8535C38.8236 17.8965 39.9401 16.7374 40.8333 15.3763ZM49 9.1875V39.8125C49 42.3433 48.1015 44.5073 46.3044 46.3044C44.5073 48.1015 42.3433 49 39.8125 49H9.1875C6.65668 49 4.49273 48.1015 2.69564 46.3044C0.898546 44.5073 0 42.3433 0 39.8125V9.1875C0 6.65668 0.898546 4.49273 2.69564 2.69564C4.49273 0.898546 6.65668 0 9.1875 0H39.8125C42.3433 0 44.5073 0.898546 46.3044 2.69564C48.1015 4.49273 49 6.65668 49 9.1875Z" fill="white"/>
</svg>
