<svg width="42" height="42" viewBox="0 0 42 42" fill="none" xmlns="http://www.w3.org/2000/svg">
<path fill-rule="evenodd" clip-rule="evenodd" d="M21 38.0625C23.9954 38.0669 26.9386 37.279 29.5312 35.7788V30.1875C29.5312 28.6211 28.909 27.1188 27.8013 26.0112C26.6937 24.9035 25.1914 24.2812 23.625 24.2812H18.375C16.8086 24.2812 15.3063 24.9035 14.1987 26.0112C13.091 27.1188 12.4688 28.6211 12.4688 30.1875V35.7788C15.0614 37.279 18.0046 38.0669 21 38.0625ZM33.4688 30.1875V32.6471C35.7386 30.2172 37.249 27.177 37.8142 23.9002C38.3794 20.6234 37.9749 17.2528 36.6502 14.2029C35.3256 11.1529 33.1387 8.55648 30.3583 6.73271C27.5779 4.90895 24.3252 3.93734 21 3.93734C17.6748 3.93734 14.4221 4.90895 11.6417 6.73271C8.86128 8.55648 6.67436 11.1529 5.34975 14.2029C4.02514 17.2528 3.62059 20.6234 4.18581 23.9002C4.75103 27.177 6.2614 30.2172 8.53125 32.6471V30.1875C8.53123 28.1581 9.15814 26.1782 10.3262 24.5186C11.4943 22.859 13.1466 21.6008 15.057 20.916C14.0658 19.7759 13.4234 18.3747 13.2066 16.8795C12.9897 15.3844 13.2075 13.8584 13.8339 12.4837C14.4604 11.1089 15.4691 9.94335 16.7397 9.12603C18.0103 8.30872 19.4892 7.87415 21 7.87415C22.5108 7.87415 23.9897 8.30872 25.2603 9.12603C26.5309 9.94335 27.5396 11.1089 28.1661 12.4837C28.7925 13.8584 29.0103 15.3844 28.7934 16.8795C28.5766 18.3747 27.9342 19.7759 26.943 20.916C28.8534 21.6008 30.5057 22.859 31.6738 24.5186C32.8419 26.1782 33.4688 28.1581 33.4688 30.1875ZM21 42C26.5695 42 31.911 39.7875 35.8492 35.8492C39.7875 31.911 42 26.5695 42 21C42 15.4305 39.7875 10.089 35.8492 6.15076C31.911 2.21249 26.5695 0 21 0C15.4305 0 10.089 2.21249 6.15076 6.15076C2.21249 10.089 0 15.4305 0 21C0 26.5695 2.21249 31.911 6.15076 35.8492C10.089 39.7875 15.4305 42 21 42ZM24.9375 15.75C24.9375 16.7943 24.5227 17.7958 23.7842 18.5342C23.0458 19.2727 22.0443 19.6875 21 19.6875C19.9557 19.6875 18.9542 19.2727 18.2158 18.5342C17.4773 17.7958 17.0625 16.7943 17.0625 15.75C17.0625 14.7057 17.4773 13.7042 18.2158 12.9658C18.9542 12.2273 19.9557 11.8125 21 11.8125C22.0443 11.8125 23.0458 12.2273 23.7842 12.9658C24.5227 13.7042 24.9375 14.7057 24.9375 15.75Z" fill="white"/>
</svg>
